<?xml version="1.0" encoding="UTF-8"?>
<svg width="44px" height="55px" viewBox="0 0 44 55" version="1.1" xmlns="http://www.w3.org/2000/svg" xmlns:xlink="http://www.w3.org/1999/xlink">
    <title>so-easter-egg-5</title>
    <g id="Page-1" stroke="none" stroke-width="1" fill="none" fill-rule="evenodd">
        <g id="Home-Page" transform="translate(-871.000000, -821.000000)" fill="#000000" fill-rule="nonzero">
            <g id="so-easter-egg-5" transform="translate(871.000000, 821.000000)">
                <path d="M22,55 C38.5,55 44,38.5 44,30.25 C43.8195393,20.8545011 39.8530513,11.9299031 33,5.5 C30.146219,2.36076387 26.2236575,0.399483156 22,0 C17.7763425,0.399483156 13.853781,2.36076387 11,5.5 C4.14694866,11.9299031 0.180460677,20.8545011 0,30.25 C0,38.5 5.5,55 22,55 Z M6.40475,23.5015 L10.725,26.642 L20.075,17.292 C21.1488746,16.2184497 22.8896254,16.2184497 23.9635,17.292 L33.3135,26.642 L37.6255,23.5015 C38.161229,25.514561 38.4548048,27.5843629 38.5,29.667 L34.65,32.472 C33.5541777,33.2766032 32.0348733,33.1597337 31.075,32.197 L22,23.1385 L12.94425,32.19425 C11.9843767,33.1569837 10.4650723,33.2738532 9.36925,32.46925 L5.51925,29.66425 C5.56825492,27.5820926 5.86552274,25.5132194 6.40475,23.5015 Z" id="Shape"></path>
            </g>
        </g>
    </g>
</svg>