<?xml version="1.0" encoding="UTF-8"?>
<svg width="44px" height="49px" viewBox="0 0 44 49" version="1.1" xmlns="http://www.w3.org/2000/svg" xmlns:xlink="http://www.w3.org/1999/xlink">
    <title>blackhole, black, hole</title>
    <g id="Page-1" stroke="none" stroke-width="1" fill="none" fill-rule="evenodd">
        <g id="Home-Page" transform="translate(-1206.000000, -832.000000)" fill="#000000" fill-rule="nonzero">
            <g id="blackhole,-black,-hole" transform="translate(1206.000000, 832.000000)">
                <path d="M24.4444444,15.2222222 L22,15.2222222 C20.8961279,15.2332746 19.8023075,15.4333536 18.766,15.8137778 C21.2834541,10.9499656 26.30108,7.89395527 31.7777778,7.88888889 C33.1278072,7.88888889 34.2222222,6.79447383 34.2222222,5.44444444 C34.2222222,4.09441506 33.1278072,3 31.7777778,3 C20.9825687,3.01212416 12.2343464,11.7603464 12.2222222,22.5555556 L12.2222222,25 C12.2332746,26.1038721 12.4333536,27.1976925 12.8137778,28.234 C7.94996561,25.7165459 4.89395527,20.69892 4.88888889,15.2222222 C4.88888889,13.8721928 3.79447383,12.7777778 2.44444444,12.7777778 C1.09441506,12.7777778 0,13.8721928 0,15.2222222 C0.0121241622,26.0174313 8.76034643,34.7656536 19.5555556,34.7777778 L22,34.7777778 C23.1038721,34.7667254 24.1976925,34.5666464 25.234,34.1862222 C22.7165459,39.0500344 17.69892,42.1060447 12.2222222,42.1111111 C10.8721928,42.1111111 9.77777778,43.2055262 9.77777778,44.5555556 C9.77777778,45.9055849 10.8721928,47 12.2222222,47 C23.0174313,46.9878758 31.7656536,38.2396536 31.7777778,27.4444444 L31.7777778,25 C31.7667254,23.8961279 31.5666464,22.8023075 31.1862222,21.766 C36.0500344,24.2834541 39.1060447,29.30108 39.1111111,34.7777778 C39.1111111,36.1278072 40.2055262,37.2222222 41.5555556,37.2222222 C42.9055849,37.2222222 44,36.1278072 44,34.7777778 C43.9878758,23.9825687 35.2396536,15.2343464 24.4444444,15.2222222 Z" id="Path"></path>
                <circle id="Oval" cx="40.5" cy="45.5" r="3.5"></circle>
                <circle id="Oval" cx="40.5" cy="3.5" r="3.5"></circle>
                <circle id="Oval" cx="3.5" cy="3.5" r="3.5"></circle>
                <circle id="Oval" cx="3.5" cy="45.5" r="3.5"></circle>
            </g>
        </g>
    </g>
</svg>