<?xml version="1.0" encoding="UTF-8"?>
<svg width="45px" height="45px" viewBox="0 0 45 45" version="1.1" xmlns="http://www.w3.org/2000/svg" xmlns:xlink="http://www.w3.org/1999/xlink">
    <title>fencing, sports, weapon, sword, fight</title>
    <g id="Page-1" stroke="none" stroke-width="1" fill="none" fill-rule="evenodd">
        <g id="Home-Page" transform="translate(-538.000000, -831.000000)" fill="#000000" fill-rule="nonzero">
            <g id="fencing,-sports,-weapon,-sword,-fight" transform="translate(538.000000, 831.000000)">
                <path d="M37.7466409,34.2164706 L37.7466409,34.2164706 L42.7223336,29.2407779 C39.6618161,26.1916493 34.9305222,25.5887016 31.2030932,27.7727862 C31.1449471,27.6689163 31.079015,27.5696009 31.005863,27.4756927 L26.0301703,22.5 L44.2377603,4.29240999 C44.8867639,3.66558139 45.1470478,2.73734277 44.9185718,1.86446338 C44.6900958,0.991583998 44.008416,0.30990421 43.1355366,0.0814281892 C42.2626572,-0.147047832 41.3344186,0.113236103 40.70759,0.762239655 L22.5,18.9698297 L4.29240999,0.762239655 C3.31280299,-0.18389645 1.75566859,-0.170365373 0.79265161,0.79265161 C-0.170365373,1.75566859 -0.18389645,3.31280299 0.762239655,4.29240999 L18.9698297,22.5 L13.994137,27.4756927 C13.920985,27.5696009 13.8550529,27.6689163 13.7969068,27.7727862 C10.0694778,25.5887016 5.33818393,26.1916493 2.27766638,29.2407779 L7.25335909,34.2164706 L7.25335909,34.2164706 L0.762239655,40.70759 C0.113236103,41.3344186 -0.147047832,42.2626572 0.0814281892,43.1355366 C0.30990421,44.008416 0.991583998,44.6900958 1.86446338,44.9185718 C2.73734277,45.1470478 3.66558139,44.8867639 4.29240999,44.2377603 L10.7835294,37.7466409 L10.7835294,37.7466409 L15.7592221,42.7223336 C18.8083507,39.6618161 19.4112984,34.9305222 17.2272138,31.2030932 C17.3310837,31.1449471 17.4303991,31.079015 17.5243073,31.005863 L22.5,26.0301703 L27.4756927,31.005863 C27.5696009,31.079015 27.6689163,31.1449471 27.7727862,31.2030932 C25.5887016,34.9305222 26.1916493,39.6618161 29.2407779,42.7223336 L34.2164706,37.7466409 L34.2164706,37.7466409 L40.70759,44.2377603 C41.687197,45.1838964 43.2443314,45.1703654 44.2073484,44.2073484 C45.1703654,43.2443314 45.1838964,41.687197 44.2377603,40.70759 L37.7466409,34.2164706 Z" id="Path"></path>
            </g>
        </g>
    </g>
</svg>