<?xml version="1.0" encoding="UTF-8"?>
<svg width="103px" height="103px" viewBox="0 0 103 103" version="1.1" xmlns="http://www.w3.org/2000/svg" xmlns:xlink="http://www.w3.org/1999/xlink">
    <title>Group 2</title>
    <defs>
        <path d="M52,89 C72.4345357,89 89,72.4345357 89,52 C89,31.5654643 72.4345357,15 52,15 C31.5654643,15 15,31.5654643 15,52 C15,72.4345357 31.5654643,89 52,89 Z" id="path-1"></path>
        <mask id="mask-2" maskContentUnits="userSpaceOnUse" maskUnits="objectBoundingBox" x="0" y="0" width="74" height="74" fill="white">
            <use xlink:href="#path-1"></use>
        </mask>
    </defs>
    <g id="Page-1" stroke="none" stroke-width="1" fill="none" fill-rule="evenodd">
        <g id="Home-Page" transform="translate(-411.000000, -1126.000000)" fill="#FFFFFF">
            <g id="Group-2" transform="translate(411.000000, 1126.000000)">
                <path d="M51.5,103 C79.9426646,103 103,79.9426646 103,51.5 C103,23.0573354 79.9426646,0 51.5,0 C23.0573354,0 0,23.0573354 0,51.5 C0,79.9426646 23.0573354,103 51.5,103 Z" id="Oval"></path>
                <use id="Oval" stroke="#CDCDCD" mask="url(#mask-2)" stroke-width="2" stroke-dasharray="1" xlink:href="#path-1"></use>
                <circle id="Oval" stroke="#000000" cx="52.5" cy="51.5" r="28"></circle>
            </g>
        </g>
    </g>
</svg>