<?xml version="1.0" encoding="UTF-8"?>
<svg width="65px" height="60px" viewBox="0 0 65 60" version="1.1" xmlns="http://www.w3.org/2000/svg" xmlns:xlink="http://www.w3.org/1999/xlink">
    <title>so-witch</title>
    <g id="Page-1" stroke="none" stroke-width="1" fill="none" fill-rule="evenodd">
        <g id="Home-Page" transform="translate(-179.000000, -821.000000)" fill="#000000" fill-rule="nonzero">
            <g id="so-witch" transform="translate(179.000000, 821.000000)">
                <path d="M65,42 C65,48.627 50.44975,60 32.5,60 C14.55025,60 0,48.627 0,42 C0,37.158 7.7805,33 18.9605,31.101 L18.9605,31.101 C17.342,35.73 16.25,39 16.25,39 C20.6999835,42.7516852 26.474615,44.8838568 32.5,45 C38.525385,44.8838568 44.3000165,42.7516852 48.75,39 L46.8845,31.251 C57.6095,33.213 65,37.281 65,42 Z M55.25,12 C52,3 35.75,0 32.5,0 C29.87075,0 20.69275,26.043 19.5715,29.334 L19.5715,29.334 C23.4103288,31.6764134 27.8985814,32.9491004 32.5,33 C37.4533411,32.9327979 42.2669193,31.4740216 46.2995,28.818 L42.25,12 L52,23.982 C55.1432513,20.7200782 56.3572665,16.2442841 55.25,12 Z" id="Shape"></path>
            </g>
        </g>
    </g>
</svg>